<svg width="25" height="25" viewBox="0 0 25 25" fill="none" xmlns="http://www.w3.org/2000/svg">
<g clip-path="url(#clip0)">
<path d="M12.4999 25.0003C19.4033 25.0003 24.9997 19.4039 24.9997 12.5004C24.9997 5.59692 19.4033 0.000549316 12.4999 0.000549316C5.59637 0.000549316 0 5.59692 0 12.5004C0 19.4039 5.59637 25.0003 12.4999 25.0003Z" fill="#41B4E6"/>
<path d="M24.9999 12.5001C24.9999 12.1955 24.9884 11.8937 24.967 11.5945L19.7864 6.41402L5.21338 12.1464L10.7891 17.7222L10.8623 17.9855L10.9569 17.89L10.9573 17.8904L10.8623 17.9855L17.0301 24.1533C21.6941 22.3388 24.9999 17.8058 24.9999 12.5001Z" fill="#0091C8"/>
<path d="M11.286 14.3212L16.935 18.5862L19.7865 6.41402L5.21338 12.1464L9.6478 13.6152L17.7407 8.18667L11.286 14.3212Z" fill="white"/>
<path d="M9.64795 13.6152L10.8625 17.9855L11.2861 14.3212L17.7409 8.18666L9.64795 13.6152Z" fill="#D2D2D7"/>
<path d="M13.1219 15.7074L10.8623 17.9855L11.286 14.3213L13.1219 15.7074Z" fill="#B9B9BE"/>
</g>
<defs>
<clipPath id="clip0">
<rect width="25" height="25" rx="10" fill="white"/>
</clipPath>
</defs>
</svg>
