<svg width="25" height="25" viewBox="0 0 25 25" fill="none" xmlns="http://www.w3.org/2000/svg">
<path d="M12.4984 0.260178C5.59688 0.260178 0 5.87893 0 12.8102C0 18.3539 3.58125 23.0571 8.55 24.718C9.175 24.8336 9.40312 24.4461 9.40312 24.1133C9.40312 23.8149 9.39219 23.0258 9.38594 21.9789C5.90938 22.7367 5.175 20.2961 5.175 20.2961C4.60781 18.8461 3.7875 18.4602 3.7875 18.4602C2.65156 17.6821 3.87187 17.6977 3.87187 17.6977C5.12656 17.7867 5.78594 18.9914 5.78594 18.9914C6.90156 20.9086 8.7125 20.3555 9.425 20.0336C9.5375 19.2227 9.86094 18.6696 10.2188 18.3555C7.44375 18.0383 4.525 16.9617 4.525 12.1539C4.525 10.7836 5.0125 9.6633 5.8125 8.78518C5.68281 8.46799 5.25469 7.19143 5.93438 5.46487C5.93438 5.46487 6.98438 5.12737 9.37187 6.7508C10.3688 6.47268 11.4375 6.33362 12.5016 6.32893C13.5625 6.33518 14.6328 6.47268 15.6312 6.75237C18.0172 5.12893 19.0656 5.46643 19.0656 5.46643C19.7469 7.19455 19.3187 8.46955 19.1906 8.78674C19.9922 9.66487 20.475 10.7852 20.475 12.1555C20.475 16.9758 17.5531 18.0367 14.7687 18.3477C15.2172 18.7352 15.6172 19.5008 15.6172 20.6711C15.6172 22.3492 15.6016 23.7024 15.6016 24.1133C15.6016 24.4492 15.8266 24.8399 16.4609 24.7164C21.4219 23.0539 25 18.3524 25 12.8102C25 5.87893 19.4031 0.260178 12.4984 0.260178Z" fill="#1C2938"/>
</svg>
