<svg width="25" height="25" viewBox="0 0 25 25" fill="none" xmlns="http://www.w3.org/2000/svg">
<path d="M17.5524 0H7.44764C3.34099 0 0 3.34099 0 7.44764V17.5524C0 21.659 3.34099 25 7.44764 25H17.5524C21.659 25 25 21.659 25 17.5524V7.44764C25 3.34099 21.659 0 17.5524 0ZM22.485 17.5524C22.485 20.2766 20.2766 22.485 17.5524 22.485H7.44764C4.72344 22.485 2.515 20.2766 2.515 17.5524V7.44764C2.515 4.72339 4.72344 2.515 7.44764 2.515H17.5524C20.2766 2.515 22.485 4.72339 22.485 7.44764V17.5524Z" fill="url(#paint0_linear)"/>
<path d="M12.5001 6.03409C8.93477 6.03409 6.03418 8.93468 6.03418 12.4999C6.03418 16.0652 8.93477 18.9658 12.5001 18.9658C16.0654 18.9658 18.966 16.0652 18.966 12.4999C18.966 8.93463 16.0654 6.03409 12.5001 6.03409ZM12.5001 16.4509C10.318 16.4509 8.54918 14.682 8.54918 12.5C8.54918 10.3179 10.3181 8.54909 12.5001 8.54909C14.6821 8.54909 16.451 10.3179 16.451 12.5C16.451 14.682 14.6821 16.4509 12.5001 16.4509Z" fill="url(#paint1_linear)"/>
<path d="M18.9786 7.63209C19.8342 7.63209 20.5279 6.93842 20.5279 6.08273C20.5279 5.22704 19.8342 4.53337 18.9786 4.53337C18.1229 4.53337 17.4292 5.22704 17.4292 6.08273C17.4292 6.93842 18.1229 7.63209 18.9786 7.63209Z" fill="url(#paint2_linear)"/>
<defs>
<linearGradient id="paint0_linear" x1="12.5" y1="24.9272" x2="12.5" y2="0.194179" gradientUnits="userSpaceOnUse">
<stop stop-color="#E09B3D"/>
<stop offset="0.3" stop-color="#C74C4D"/>
<stop offset="0.6" stop-color="#C21975"/>
<stop offset="1" stop-color="#7024C4"/>
</linearGradient>
<linearGradient id="paint1_linear" x1="12.5001" y1="24.9272" x2="12.5001" y2="0.194159" gradientUnits="userSpaceOnUse">
<stop stop-color="#E09B3D"/>
<stop offset="0.3" stop-color="#C74C4D"/>
<stop offset="0.6" stop-color="#C21975"/>
<stop offset="1" stop-color="#7024C4"/>
</linearGradient>
<linearGradient id="paint2_linear" x1="18.9786" y1="24.9273" x2="18.9786" y2="0.194257" gradientUnits="userSpaceOnUse">
<stop stop-color="#E09B3D"/>
<stop offset="0.3" stop-color="#C74C4D"/>
<stop offset="0.6" stop-color="#C21975"/>
<stop offset="1" stop-color="#7024C4"/>
</linearGradient>
</defs>
</svg>
